<svg width="26" height="26" viewBox="0 0 26 26" fill="none" xmlns="http://www.w3.org/2000/svg">
<path d="M22.9394 0.939341C23.5252 0.353553 24.4747 0.353553 25.0605 0.939341C25.6462 1.52514 25.6462 2.47469 25.0605 3.06044C24.9788 3.14212 24.9415 3.18038 24.8603 3.26161C24.8436 3.27828 24.8261 3.29478 24.8095 3.31142L24.7099 3.41103C24.6935 3.42748 24.6775 3.44441 24.6611 3.46083C24.6529 3.46903 24.5703 3.55066 24.5615 3.55946L24.0703 4.05068C24.031 4.08993 23.9154 4.2065 23.8769 4.24501C23.8608 4.26113 23.8442 4.27677 23.8281 4.29286C23.812 4.30895 23.7963 4.32563 23.7802 4.34169C23.7642 4.35773 23.7474 4.37354 23.7314 4.38954L23.3964 4.72451C23.3806 4.74031 23.3653 4.75658 23.3495 4.77236C23.3338 4.78816 23.3175 4.80346 23.3017 4.81923L23.207 4.91396C23.1912 4.92971 23.1758 4.94609 23.1601 4.96181C23.1444 4.97755 23.128 4.99297 23.1122 5.00869L23.0185 5.10244C23.0028 5.11811 22.9873 5.13464 22.9716 5.15029L22.9247 5.19716C22.8694 5.2525 22.8861 5.23487 22.831 5.28994L21.7743 6.34658C21.7593 6.36164 21.7445 6.37744 21.7294 6.39248C21.6494 6.47249 21.7186 6.40233 21.6386 6.48232L21.5488 6.57217C21.5012 6.61973 21.5075 6.61437 21.4599 6.66201C21.3805 6.74136 21.4493 6.67168 21.3701 6.75088L20.5761 7.54482C20.2659 7.85501 20.1915 7.93045 19.8857 8.23623C19.8715 8.25038 19.8568 8.26409 19.8427 8.27822L19.7997 8.32119C19.7902 8.33071 19.7242 8.39767 19.7148 8.40713C19.7006 8.4213 19.686 8.43497 19.6718 8.44912C19.6576 8.46329 19.644 8.47794 19.6298 8.49209C19.6157 8.50625 19.601 8.51994 19.5868 8.53408C19.5727 8.54823 19.559 8.56292 19.5449 8.57705C19.5258 8.5961 19.3936 8.72733 19.3749 8.746L19.207 8.91397C19.1929 8.92798 19.179 8.94294 19.165 8.95694L19.123 8.99893C19.1091 9.01277 19.0948 9.02612 19.081 9.03994L18.913 9.20791C18.8992 9.22173 18.8858 9.2361 18.872 9.24991C18.8693 9.25264 18.7883 9.33265 18.788 9.33291L18.622 9.49893C18.6082 9.51275 18.5948 9.52712 18.581 9.54092C18.5672 9.55471 18.5528 9.56816 18.539 9.58194L18.498 9.62295C18.4842 9.63673 18.4707 9.65119 18.457 9.66495C18.4569 9.66499 18.3772 9.74377 18.374 9.74698L18.3329 9.78799C18.3192 9.80173 18.3056 9.81626 18.2919 9.82999L18.2089 9.91202L17.9628 10.1581C17.9493 10.1716 17.9363 10.1856 17.9228 10.1991L17.8818 10.2401C17.8682 10.2537 17.8543 10.2667 17.8407 10.2802L17.7997 10.3212C17.7272 10.3937 17.7912 10.3307 17.7187 10.4032C17.7158 10.4061 17.6369 10.484 17.6366 10.4843L17.5556 10.5653C17.5421 10.5788 17.529 10.5929 17.5156 10.6064C17.502 10.6199 17.488 10.6329 17.4745 10.6464C17.461 10.6599 17.448 10.6739 17.4345 10.6874C17.421 10.7009 17.407 10.714 17.3935 10.7274L17.2724 10.8485C17.2589 10.862 17.2458 10.8761 17.2323 10.8896C17.0891 11.0328 17.0526 11.0683 16.9101 11.2108L16.87 11.2509C16.8567 11.2643 16.8434 11.2785 16.83 11.2919L16.5497 11.5722C16.5365 11.5854 16.5229 11.5981 16.5097 11.6112L16.3495 11.7714C16.3363 11.7846 16.3236 11.7983 16.3105 11.8114C16.2973 11.8246 16.2836 11.8373 16.2704 11.8505L16.1904 11.9306C16.1772 11.9438 16.1645 11.9574 16.1513 11.9706C16.1381 11.9838 16.1244 11.9965 16.1112 12.0097L16.0712 12.0497C16.058 12.0629 16.0453 12.0766 16.0321 12.0898C16.019 12.1029 16.0053 12.1156 15.9921 12.1288L15.9521 12.1689C15.9389 12.182 15.9262 12.1957 15.913 12.2089C15.8998 12.2221 15.8861 12.2348 15.873 12.248C15.8598 12.2611 15.8471 12.2748 15.8339 12.288C15.8208 12.3011 15.807 12.3139 15.7939 12.3271L15.3984 12.7226C15.3852 12.7357 15.3725 12.7495 15.3593 12.7626C15.3461 12.7758 15.3324 12.7885 15.3193 12.8017L15.2011 12.9198C15.188 12.933 15.1752 12.9467 15.162 12.9599C15.1489 12.973 15.1351 12.9858 15.122 12.9989L15.121 12.9999L25.0605 22.9394L25.164 23.0536C25.644 23.6428 25.6095 24.5115 25.0605 25.0605C24.5115 25.6095 23.6428 25.644 23.0536 25.164L22.9394 25.0605L12.9999 15.121L12.9989 15.122C12.9858 15.1351 12.973 15.1489 12.9599 15.162C12.9467 15.1752 12.933 15.188 12.9198 15.2011L12.8017 15.3193C12.7885 15.3324 12.7758 15.3461 12.7626 15.3593C12.7495 15.3725 12.7357 15.3852 12.7226 15.3984L12.3271 15.7939C12.3139 15.807 12.3011 15.8208 12.288 15.8339C12.2748 15.8471 12.2611 15.8598 12.248 15.873C12.2348 15.8861 12.2221 15.8998 12.2089 15.913C12.1957 15.9262 12.182 15.9389 12.1689 15.9521L12.1288 15.9921C12.1156 16.0053 12.1029 16.019 12.0898 16.0321C12.0766 16.0453 12.0629 16.058 12.0497 16.0712L12.0097 16.1112C11.9965 16.1244 11.9838 16.1381 11.9706 16.1513C11.9574 16.1645 11.9438 16.1772 11.9306 16.1904L11.8505 16.2704C11.8373 16.2836 11.8246 16.2973 11.8114 16.3105C11.7983 16.3236 11.7846 16.3363 11.7714 16.3495L11.6112 16.5097C11.5981 16.5229 11.5854 16.5365 11.5722 16.5497L11.2919 16.83C11.2785 16.8434 11.2643 16.8567 11.2509 16.87L11.2108 16.9101C11.0683 17.0526 11.0328 17.0891 10.8896 17.2323C10.8761 17.2458 10.862 17.2589 10.8485 17.2724L10.7274 17.3935C10.714 17.407 10.7009 17.421 10.6874 17.4345C10.6739 17.448 10.6599 17.461 10.6464 17.4745C10.6329 17.488 10.6199 17.502 10.6064 17.5156C10.5929 17.529 10.5788 17.5421 10.5653 17.5556L10.4843 17.6366C10.484 17.6369 10.4061 17.7158 10.4032 17.7187C10.3307 17.7912 10.3937 17.7272 10.3212 17.7997L10.2802 17.8407C10.2667 17.8543 10.2537 17.8682 10.2401 17.8818L10.1991 17.9228C10.1856 17.9363 10.1716 17.9493 10.1581 17.9628L9.871 18.2499C9.85729 18.2636 9.84371 18.2782 9.82999 18.2919C9.81626 18.3056 9.80173 18.3192 9.78799 18.3329L9.70596 18.415C9.6922 18.4287 9.67872 18.4432 9.66495 18.457C9.65119 18.4707 9.63673 18.4842 9.62295 18.498L9.58194 18.539C9.56816 18.5528 9.55471 18.5672 9.54092 18.581C9.52712 18.5948 9.51275 18.6082 9.49893 18.622L9.29092 18.83C9.27709 18.8438 9.26375 18.8582 9.24991 18.872C9.2361 18.8858 9.22173 18.8992 9.20791 18.913L9.03994 19.081C9.02612 19.0948 9.01277 19.1091 8.99893 19.123L8.95694 19.165C8.94294 19.179 8.92798 19.1929 8.91397 19.207L8.746 19.3749C8.68972 19.4312 8.63357 19.4883 8.57705 19.5449C8.56292 19.559 8.54823 19.5727 8.53408 19.5868C8.51994 19.601 8.50625 19.6157 8.49209 19.6298C8.47794 19.644 8.46329 19.6576 8.44912 19.6718C8.43497 19.686 8.4213 19.7006 8.40713 19.7148C8.39767 19.7242 8.33071 19.7902 8.32119 19.7997L8.27822 19.8427C8.26409 19.8568 8.25038 19.8715 8.23623 19.8857C8.19831 19.9236 8.10255 20.0184 8.06436 20.0566L7.97842 20.1425C7.88277 20.2382 7.98817 20.1337 7.89248 20.2294C7.87809 20.2438 7.86295 20.258 7.84854 20.2724L7.80557 20.3154C7.79114 20.3298 7.77704 20.3449 7.7626 20.3593C7.74818 20.3737 7.73309 20.3878 7.71865 20.4023L6.75088 21.3701C6.67168 21.4493 6.74136 21.3805 6.66201 21.4599C6.61437 21.5075 6.61973 21.5012 6.57217 21.5488L5.28994 22.831C5.27449 22.8464 5.25951 22.8624 5.24404 22.8779L5.15029 22.9716C5.13464 22.9873 5.11811 23.0028 5.10244 23.0185L5.00869 23.1122C4.99297 23.128 4.97755 23.1444 4.96181 23.1601C4.94609 23.1758 4.92971 23.1912 4.91396 23.207L4.81923 23.3017C4.80346 23.3175 4.78816 23.3338 4.77236 23.3495C4.75658 23.3653 4.74031 23.3806 4.72451 23.3964L4.38954 23.7314C4.37354 23.7474 4.35773 23.7642 4.34169 23.7802C4.32563 23.7963 4.30895 23.812 4.29286 23.8281C4.27677 23.8442 4.26113 23.8608 4.24501 23.8769C4.05189 24.07 4.04999 24.0709 3.85536 24.2656L3.55946 24.5615C3.55066 24.5703 3.46903 24.6529 3.46083 24.6611C3.44441 24.6775 3.42748 24.6935 3.41103 24.7099L3.31142 24.8095C3.29478 24.8261 3.27828 24.8436 3.26161 24.8603C3.20485 24.9171 3.21783 24.9031 3.16103 24.9599C3.1443 24.9766 3.12797 24.9939 3.11122 25.0107C3.09447 25.0274 3.07722 25.0437 3.06044 25.0605C2.47469 25.6462 1.52514 25.6462 0.939341 25.0605C0.353553 24.4747 0.353553 23.5252 0.939341 22.9394C0.95612 22.9226 0.972396 22.9054 0.989146 22.8886C1.0059 22.8719 1.0232 22.8555 1.03993 22.8388L1.08973 22.789C1.10643 22.7723 1.12287 22.7549 1.13954 22.7382L1.38856 22.4892C1.40501 22.4727 1.42194 22.4568 1.43837 22.4404L1.63563 22.2431C1.65202 22.2267 1.6681 22.2097 1.68446 22.1933C1.70081 22.1769 1.71794 22.1608 1.73426 22.1445L1.92958 21.9492C1.9457 21.933 1.96133 21.9164 1.97743 21.9003C1.99354 21.8842 2.01018 21.8686 2.02626 21.8525C2.04247 21.8363 2.10683 21.7709 2.12294 21.7548C2.13906 21.7387 2.15567 21.7231 2.17177 21.707C2.18786 21.6909 2.20355 21.6742 2.21962 21.6581C2.23565 21.6421 2.25244 21.6263 2.26845 21.6103L3.26259 20.6161C3.27806 20.6007 3.29304 20.5847 3.30849 20.5693C3.32396 20.5538 3.33991 20.5388 3.35536 20.5234C3.37081 20.5079 3.38583 20.4919 3.40126 20.4765C3.4167 20.4611 3.43272 20.446 3.44814 20.4306C3.46357 20.4152 3.47862 20.3991 3.49403 20.3837C3.50942 20.3683 3.52554 20.3532 3.54091 20.3378L5.68447 18.1943C5.74216 18.1366 5.71272 18.165 5.77041 18.1073C5.78357 18.0942 5.93053 17.9482 5.94326 17.9355L6.07216 17.8066C6.08633 17.7924 6.1 17.7778 6.11416 17.7636L6.45498 17.4228C6.4691 17.4087 6.48384 17.3949 6.49795 17.3808L6.79287 17.0859C6.86762 17.0111 6.80216 17.0756 6.87685 17.0009C6.8907 16.9871 6.90502 16.9737 6.91885 16.9599L7.08682 16.7919C7.10063 16.7781 7.11403 16.7637 7.12783 16.7499C7.14167 16.7361 7.156 16.7227 7.16982 16.7089L7.46084 16.4179C7.49738 16.3813 7.50632 16.3714 7.54287 16.3349C7.55665 16.3211 7.5711 16.3076 7.58486 16.2939L7.62588 16.2529C7.69923 16.1795 7.63462 16.2431 7.70791 16.1698C7.72164 16.1561 7.73619 16.1425 7.7499 16.1288L8.03701 15.8417C8.10924 15.7695 8.04552 15.8322 8.11807 15.7597C8.16002 15.7177 8.40324 15.4755 8.44424 15.4345C8.55234 15.3264 8.41711 15.4616 8.5253 15.3534C8.5388 15.3399 8.55184 15.3259 8.56533 15.3124C8.57883 15.2989 8.59287 15.2859 8.60635 15.2724L8.68741 15.1913C8.75892 15.1198 8.69571 15.182 8.76748 15.1103C8.8391 15.0387 8.77704 15.1017 8.84854 15.0302C8.86643 15.0123 8.91067 14.9671 8.92862 14.9491C8.94204 14.9357 8.95622 14.9225 8.96963 14.9091L9.12979 14.7489C9.14317 14.7356 9.15646 14.7213 9.16983 14.7079L9.4501 14.4277C9.46329 14.4145 9.47696 14.4018 9.49014 14.3886L9.6503 14.2284C9.66348 14.2153 9.67618 14.2016 9.68936 14.1884C9.70255 14.1752 9.71622 14.1625 9.7294 14.1493L9.80948 14.0693C9.82266 14.0561 9.83537 14.0424 9.84854 14.0292C9.86173 14.016 9.8754 14.0033 9.88858 13.9902L9.92862 13.9501C9.94181 13.9369 9.9545 13.9233 9.96768 13.9101C9.98086 13.8969 9.99455 13.8842 10.0077 13.871L10.0478 13.831C10.0609 13.8178 10.0737 13.8041 10.0868 13.7909C10.1 13.7777 10.1137 13.7651 10.1269 13.7519C10.14 13.7387 10.1528 13.725 10.1659 13.7118C10.1791 13.6987 10.1928 13.6859 10.206 13.6728L10.6015 13.2773C10.6146 13.2641 10.6274 13.2504 10.6405 13.2372C10.6537 13.2241 10.6674 13.2113 10.6806 13.1982L10.7987 13.08C10.8119 13.0669 10.8247 13.0531 10.8378 13.04C10.8509 13.0268 10.8647 13.014 10.8778 13.0009L10.8788 12.9999L0.939341 3.06044C0.353553 2.47465 0.353553 1.52513 0.939341 0.939341C1.52513 0.353553 2.47465 0.353553 3.06044 0.939341L12.9999 10.8788L13.0009 10.8778C13.014 10.8647 13.0268 10.8509 13.04 10.8378C13.0531 10.8247 13.0669 10.8119 13.08 10.7987L13.1982 10.6806C13.2113 10.6674 13.2241 10.6537 13.2372 10.6405C13.2504 10.6274 13.2641 10.6146 13.2773 10.6015L13.6728 10.206C13.6859 10.1928 13.6987 10.1791 13.7118 10.1659C13.725 10.1528 13.7387 10.14 13.7519 10.1269C13.7651 10.1137 13.7777 10.1 13.7909 10.0868C13.8041 10.0737 13.8178 10.0609 13.831 10.0478L13.871 10.0077C13.8842 9.99455 13.8969 9.98086 13.9101 9.96768C13.9233 9.9545 13.9369 9.94181 13.9501 9.92862L13.9902 9.88858C14.0033 9.8754 14.016 9.86173 14.0292 9.84854C14.0424 9.83537 14.0561 9.82266 14.0693 9.80948L14.1493 9.7294C14.1625 9.71622 14.1752 9.70255 14.1884 9.68936C14.2016 9.67618 14.2153 9.66348 14.2284 9.6503L14.3886 9.49014C14.4018 9.47696 14.4145 9.46329 14.4277 9.4501L14.7079 9.16983C14.7213 9.15646 14.7356 9.14317 14.7489 9.12979L14.8691 9.00967C14.9048 8.97392 14.9133 8.96441 14.9491 8.92862C14.9671 8.91067 15.0123 8.86643 15.0302 8.84854L15.0702 8.8085C15.0837 8.79506 15.0968 8.78093 15.1103 8.76748C15.1237 8.75403 15.1378 8.74091 15.1513 8.72744L15.2724 8.60635C15.2859 8.59287 15.2989 8.57883 15.3124 8.56533C15.3259 8.55184 15.3399 8.5388 15.3534 8.5253L15.4345 8.44424C15.4759 8.40284 15.7173 8.16043 15.7597 8.11807C15.8322 8.04552 15.7695 8.10924 15.8417 8.03701L16.1288 7.7499C16.1425 7.73619 16.1561 7.72164 16.1698 7.70791C16.1943 7.6835 16.2284 7.65034 16.2529 7.62588L16.2939 7.58486C16.3076 7.5711 16.3211 7.55665 16.3349 7.54287C16.3714 7.50632 16.3813 7.49738 16.4179 7.46084C16.5282 7.35058 16.3906 7.48811 16.5009 7.37783C16.5147 7.36401 16.5281 7.34967 16.5419 7.33584C16.5557 7.32202 16.5701 7.30866 16.5839 7.29482C16.6576 7.22111 16.676 7.20173 16.7499 7.12783C16.7637 7.11403 16.7781 7.10063 16.7919 7.08682L16.9599 6.91885C16.9737 6.90502 16.9871 6.8907 17.0009 6.87685C17.0756 6.80216 17.0111 6.86762 17.0859 6.79287L17.3808 6.49795C17.3949 6.48384 17.4087 6.4691 17.4228 6.45498L18.1073 5.77041C18.165 5.71272 18.1366 5.74216 18.1943 5.68447C18.2087 5.67004 18.2228 5.65497 18.2372 5.64052C18.2517 5.6261 18.2667 5.61199 18.2812 5.59755L19.2939 4.58486C19.3087 4.57006 19.323 4.55475 19.3378 4.53993C19.3526 4.52513 19.3679 4.51081 19.3827 4.49599L19.6982 4.18056C19.7133 4.16548 19.728 4.14976 19.7431 4.13466C19.7582 4.11957 19.7739 4.10485 19.789 4.08974L20.3378 3.54091C20.3532 3.52554 20.3683 3.50942 20.3837 3.49403C20.3991 3.47862 20.4152 3.46357 20.4306 3.44814C20.446 3.43272 20.4611 3.4167 20.4765 3.40126C20.4919 3.38583 20.5079 3.37081 20.5234 3.35536L21.6103 2.26845C21.6263 2.25244 21.6421 2.23565 21.6581 2.21962C21.6742 2.20355 21.6909 2.18786 21.707 2.17177C21.7231 2.15567 21.7387 2.13906 21.7548 2.12294C21.7709 2.10683 21.8363 2.04247 21.8525 2.02626C21.8686 2.01018 21.8842 1.99354 21.9003 1.97743C21.9164 1.96133 21.933 1.9457 21.9492 1.92958L22.1445 1.73426C22.1608 1.71794 22.1769 1.70081 22.1933 1.68446C22.2097 1.6681 22.2267 1.65202 22.2431 1.63563L22.4404 1.43837C22.4568 1.42194 22.4727 1.40501 22.4892 1.38856L22.7382 1.13954C22.7549 1.12287 22.7723 1.10643 22.789 1.08973L22.8388 1.03993C22.8555 1.0232 22.8719 1.0059 22.8886 0.989146C22.9054 0.972396 22.9226 0.95612 22.9394 0.939341Z" fill="black"/>
</svg>
