<?xml version="1.0" encoding="UTF-8" standalone="no"?>
<!-- Generator: Adobe Illustrator 17.1.0, SVG Export Plug-In . SVG Version: 6.00 Build 0)  -->

<svg
   version="1.1"
   id="Layer_1"
   x="0px"
   y="0px"
   viewBox="0 0 70 70"
   enable-background="new 0 0 160 70"
   xml:space="preserve"
   width="70"
   height="70"
   xmlns="http://www.w3.org/2000/svg"
   xmlns:svg="http://www.w3.org/2000/svg">
<g
   id="g230"
   transform="translate(-45.656051,-1.2229299)">
	<path
   d="m 81.1,4.2 c 0.6,0.3 0.9,0.9 0.9,1.6 0,2.8 0,5.6 0,8.5 0.3,-0.1 0.4,-0.2 0.6,-0.3 2.2,-1.3 4.4,-2.6 6.7,-3.8 0.2,-0.1 0.4,-0.2 0.5,-0.3 0.6,-0.3 1.2,-0.1 1.6,0.5 0.3,0.5 0.2,1.2 -0.3,1.6 -0.2,0.2 -0.4,0.3 -0.7,0.4 -2.6,1.5 -5.3,3 -7.9,4.5 -0.4,0.2 -0.5,0.5 -0.5,0.9 0,1.3 0,2.5 0,3.8 0,0.3 0.1,0.5 0.4,0.7 3.1,1.8 6.2,3.5 9.2,5.3 0.3,0.2 0.6,0.2 0.9,0 1,-0.6 2.1,-1.2 3.1,-1.8 0.4,-0.2 0.6,-0.5 0.6,-1 0,-3.1 0,-6.2 0,-9.2 0,-0.2 0,-0.4 0,-0.6 0.1,-0.7 0.6,-1.2 1.2,-1.1 0.7,0 1.2,0.5 1.2,1.2 0,1.6 0,3.2 0,4.7 0,1.3 0,2.7 0,4.2 0.3,-0.2 0.5,-0.2 0.7,-0.4 2.3,-1.3 4.6,-2.7 6.9,-4 0.3,-0.2 0.7,-0.3 1.1,-0.3 0.5,0 0.8,0.4 0.9,0.9 0.1,0.6 -0.1,1 -0.6,1.3 -1.6,0.9 -3.1,1.8 -4.7,2.7 -1,0.6 -1.9,1.1 -3,1.7 0.2,0.1 0.4,0.3 0.6,0.4 2.3,1.3 4.6,2.7 6.9,4 0.5,0.3 0.9,0.7 0.7,1.4 -0.1,0.6 -0.5,1 -1,1 -0.4,0 -0.8,-0.1 -1.1,-0.3 -2.7,-1.6 -5.4,-3.1 -8.2,-4.7 -0.4,-0.2 -0.6,-0.2 -1,0 -1.1,0.7 -2.2,1.3 -3.2,1.9 -0.3,0.2 -0.4,0.3 -0.4,0.7 0,3.6 0,7.1 0,10.7 0,0.4 0.1,0.5 0.4,0.7 1.1,0.6 2.2,1.3 3.3,1.9 0.3,0.2 0.6,0.2 0.9,0 2.7,-1.6 5.5,-3.2 8.2,-4.7 0.4,-0.2 0.9,-0.3 1.3,-0.3 0.9,0.2 1.2,1.4 0.5,2 -0.2,0.1 -0.4,0.3 -0.6,0.4 -2.2,1.3 -4.4,2.6 -6.7,3.9 -0.2,0.1 -0.4,0.2 -0.6,0.4 0.2,0.1 0.3,0.2 0.5,0.3 2.3,1.3 4.5,2.6 6.8,3.9 0.2,0.1 0.4,0.2 0.6,0.4 0.5,0.4 0.6,1 0.2,1.6 -0.3,0.5 -0.9,0.7 -1.5,0.5 -0.2,-0.1 -0.4,-0.2 -0.7,-0.3 -2.2,-1.3 -4.4,-2.5 -6.6,-3.8 -0.2,-0.1 -0.4,-0.2 -0.7,-0.3 0,0.3 0,0.5 0,0.8 0,2.6 0,5.3 0,7.9 0,0.9 -0.5,1.5 -1.2,1.5 -0.7,0 -1.2,-0.6 -1.2,-1.5 0,-3.2 0,-6.3 0,-9.5 0,-0.5 -0.2,-0.7 -0.6,-1 -1.1,-0.6 -2.1,-1.2 -3.1,-1.8 -0.3,-0.2 -0.6,-0.2 -0.9,0 -3.1,1.8 -6.1,3.6 -9.2,5.3 -0.3,0.2 -0.4,0.3 -0.4,0.7 0,1.3 0,2.6 0,3.9 0,0.4 0.1,0.6 0.5,0.8 2.8,1.6 5.5,3.2 8.3,4.8 0.5,0.3 0.9,0.7 0.8,1.3 -0.1,0.9 -1,1.4 -1.9,0.9 -1.3,-0.7 -2.5,-1.4 -3.8,-2.2 -1.3,-0.7 -2.5,-1.4 -3.9,-2.2 0,0.3 0,0.5 0,0.7 0,2.6 0,5.2 0,7.8 0,0.8 -0.2,1.3 -0.9,1.7 -0.2,0 -0.5,0 -0.7,0 -0.7,-0.4 -0.9,-0.9 -0.9,-1.7 0,-2.8 0,-5.6 0,-8.5 -0.3,0.1 -0.4,0.2 -0.6,0.3 -2.3,1.3 -4.5,2.6 -6.8,3.9 -0.3,0.2 -0.7,0.3 -1.1,0.3 -0.5,0 -0.9,-0.4 -1,-1 -0.1,-0.6 0.2,-1 0.7,-1.3 1.8,-1 3.6,-2.1 5.4,-3.1 1,-0.6 2,-1.2 3,-1.7 0.3,-0.2 0.5,-0.4 0.5,-0.8 0,-1.3 0,-2.6 0,-3.9 0,-0.3 -0.1,-0.5 -0.4,-0.7 -3.1,-1.8 -6.2,-3.6 -9.3,-5.3 -0.2,-0.1 -0.5,-0.1 -0.7,0 -1.2,0.6 -2.3,1.3 -3.5,2 -0.2,0.1 -0.3,0.5 -0.3,0.7 0,3.1 0,6.1 0,9.2 0,0.2 0,0.3 0,0.5 0,0.8 -0.5,1.3 -1.2,1.3 -0.7,0 -1.2,-0.6 -1.2,-1.3 0,-1.6 0,-3.2 0,-4.9 0,-1.3 0,-2.5 0,-3.9 -0.3,0.1 -0.4,0.2 -0.6,0.3 -2.2,1.3 -4.5,2.6 -6.7,3.9 -0.1,0.1 -0.2,0.1 -0.4,0.2 -0.7,0.4 -1.4,0.2 -1.8,-0.4 -0.3,-0.6 -0.1,-1.3 0.5,-1.7 1.5,-0.9 3,-1.7 4.5,-2.6 1,-0.6 2,-1.2 3.1,-1.8 -0.2,-0.2 -0.4,-0.3 -0.6,-0.4 -2.3,-1.3 -4.7,-2.7 -7,-4 -0.5,-0.3 -0.8,-0.7 -0.7,-1.3 0.1,-0.6 0.5,-1 1,-1 0.4,0 0.8,0.1 1.1,0.3 2.7,1.5 5.4,3.1 8.1,4.7 0.4,0.2 0.7,0.2 1.1,0 1,-0.6 2.1,-1.2 3.2,-1.8 0.3,-0.2 0.4,-0.4 0.4,-0.7 0,-3.6 0,-7.1 0,-10.7 0,-0.2 -0.2,-0.5 -0.4,-0.7 -1.1,-0.7 -2.2,-1.3 -3.3,-2 -0.3,-0.2 -0.6,-0.2 -0.9,0 -2.8,1.6 -5.5,3.2 -8.3,4.8 -0.8,0.5 -1.6,0.3 -1.9,-0.4 -0.3,-0.6 -0.1,-1.3 0.6,-1.7 2.3,-1.3 4.5,-2.6 6.8,-3.9 0.2,-0.1 0.4,-0.3 0.7,-0.5 -0.2,-0.2 -0.4,-0.3 -0.6,-0.4 -2.3,-1.3 -4.6,-2.6 -6.9,-4 -0.3,-0.2 -0.7,-0.6 -0.8,-0.9 -0.1,-0.4 0.2,-0.9 0.4,-1.2 0.4,-0.4 0.9,-0.4 1.4,-0.1 1.4,0.8 2.7,1.6 4.1,2.3 1,0.6 2.1,1.2 3.1,1.8 0.2,0.1 0.3,0.2 0.6,0.3 0,-0.8 0,-1.5 0,-2.2 0,-2.2 0,-4.3 0,-6.5 0,-0.9 0.5,-1.5 1.2,-1.5 0.7,0 1.2,0.6 1.2,1.5 0,3.1 0,6.2 0,9.4 0,0.6 0.2,0.9 0.7,1.1 1,0.5 2,1.1 3,1.7 0.4,0.2 0.7,0.2 1.1,0 3,-1.8 6,-3.5 9.1,-5.2 0.3,-0.2 0.4,-0.4 0.4,-0.8 0,-1.3 0,-2.5 0,-3.8 0,-0.4 -0.2,-0.7 -0.5,-0.9 -2.7,-1.6 -5.5,-3.1 -8.2,-4.7 -0.7,-0.4 -0.9,-0.9 -0.8,-1.4 0.2,-0.8 1,-1.2 1.8,-0.8 0.9,0.5 1.9,1.1 2.8,1.6 1.6,0.9 3.2,1.9 4.9,2.8 0,-0.3 0,-0.5 0,-0.7 0,-2.6 0,-5.2 0,-7.8 0,-0.8 0.2,-1.3 0.9,-1.7 0.3,0.1 0.5,0.1 0.8,0.1 z m 9.6,31.6 c 0,-1.8 0,-3.5 0,-5.3 0,-0.4 -0.1,-0.6 -0.5,-0.8 -3,-1.7 -6.1,-3.5 -9.1,-5.3 -0.3,-0.2 -0.5,-0.2 -0.8,0 -3.1,1.8 -6.1,3.6 -9.2,5.3 -0.3,0.2 -0.4,0.4 -0.4,0.7 0,3.5 0,7.1 0,10.6 0,0.4 0.1,0.6 0.5,0.8 3,1.7 6.1,3.5 9.1,5.3 0.4,0.2 0.6,0.2 0.9,0 3,-1.8 6,-3.5 9.1,-5.2 0.4,-0.2 0.5,-0.5 0.5,-0.9 -0.1,-1.8 -0.1,-3.5 -0.1,-5.2 z"
   id="path228" />
</g>
</svg>
