<?xml version="1.0" encoding="UTF-8" standalone="no"?>
<!-- Generator: Adobe Illustrator 17.1.0, SVG Export Plug-In . SVG Version: 6.00 Build 0)  -->

<svg
   version="1.1"
   id="Layer_1"
   x="0px"
   y="0px"
   viewBox="0 0 68 70"
   enable-background="new 0 0 160 70"
   xml:space="preserve"
   width="68"
   height="70"
   xmlns="http://www.w3.org/2000/svg"
   xmlns:svg="http://www.w3.org/2000/svg">
<g
   id="g36"
   transform="translate(-46.878981,-1.4267516)">
	<path
   d="m 93,3.7 c 1.7,0.4 2.9,1.4 4.1,2.6 4.5,4.5 9,9 13.5,13.5 2.6,2.6 2.6,5.7 0,8.3 -4.6,4.6 -9.1,9.1 -13.7,13.7 -0.3,0.3 -0.5,0.7 -0.7,1.1 -1.6,4.3 -3.2,8.6 -4.8,12.9 -1.4,3.7 -4,6.2 -7.8,7.3 -2.9,0.8 -5.7,1.6 -8.6,2.4 -0.6,0.2 -1.1,0.5 -1.6,1 -0.5,0.5 -1,0.9 -1.5,1.3 -0.2,0 -0.5,0 -0.7,0 -1.1,-0.7 -1.2,-1.5 -0.2,-2.4 0.4,-0.4 0.8,-0.8 1.2,-1.2 0.4,-0.5 1,-0.8 1.6,-0.9 3.1,-0.8 6.1,-1.7 9.2,-2.6 3,-0.8 5,-2.7 6.1,-5.6 C 90,52.6 91,50 91.9,47.5 92,47.3 92,47.1 92.1,46.9 92,46.8 91.9,46.8 91.9,46.7 c -0.1,0.2 -0.2,0.4 -0.3,0.6 -1.6,1.7 -3.3,3.3 -4.9,4.9 -2.3,2.3 -5.6,2.3 -7.9,0 -0.3,-0.3 -0.5,-0.6 -0.8,-0.9 -0.4,0.3 -0.6,0.6 -0.9,0.8 -0.5,0.4 -1.2,0.3 -1.6,-0.1 -0.4,-0.4 -0.5,-1.1 -0.1,-1.6 0.1,-0.2 0.3,-0.3 0.5,-0.5 2.5,-2.5 4.9,-4.9 7.4,-7.4 0.1,-0.1 0.2,-0.2 0.4,-0.4 1,-1 1,-2.5 0,-3.5 -1,-1 -2.5,-1 -3.5,0 -1.5,1.5 -3.1,2.9 -4.5,4.5 -0.9,0.9 -1.8,1.3 -3,1.3 -2.6,0 -4.7,1 -6.4,3 -1.4,1.7 -2,3.7 -1.9,5.9 0,0.8 -0.2,1.4 -0.8,2 -3.9,3.9 -7.8,7.8 -11.7,11.6 -0.3,0.3 -0.7,0.5 -1,0.8 -0.2,0 -0.4,0 -0.6,0 -1.2,-0.7 -1.2,-1.5 -0.3,-2.4 3.8,-3.8 7.7,-7.7 11.5,-11.5 0.2,-0.2 0.4,-0.6 0.4,-0.8 0.1,-5 2.4,-8.5 7,-10.4 0.1,0 0.1,-0.1 0.4,-0.2 -0.3,-0.2 -0.6,-0.3 -0.8,-0.5 -1.4,-1.4 -2.9,-2.8 -4.3,-4.3 -2.2,-2.3 -2.2,-5.5 0,-7.7 2.6,-2.6 5.3,-5.3 7.9,-7.9 0.1,-0.1 0.3,-0.3 0.4,-0.4 0.5,-0.3 1.1,-0.2 1.5,0.2 0.4,0.4 0.5,1.1 0.1,1.5 -0.1,0.2 -0.3,0.4 -0.5,0.6 -2.5,2.5 -5.1,5.1 -7.6,7.6 -1.5,1.5 -1.5,3.1 0,4.5 1.8,1.8 3.7,3.7 5.5,5.5 0.6,0.6 1.5,0.6 2.1,0 1.6,-1.6 3.2,-3.2 4.8,-4.8 2.7,-2.5 7.1,-1.4 8.1,2.1 0.6,2 0.1,3.7 -1.3,5.2 -1.7,1.7 -3.3,3.3 -5,5 -0.2,0.2 -0.4,0.3 -0.7,0.4 0.6,0.6 0.9,1 1.4,1.4 1,0.9 2.5,0.8 3.6,0 0.2,-0.2 0.4,-0.4 0.6,-0.6 7.9,-7.9 15.8,-15.8 23.8,-23.8 1.6,-1.6 1.6,-3.1 0,-4.8 -4.7,-4.7 -9.4,-9.5 -14.2,-14.2 -1.6,-1.6 -3.1,-1.6 -4.8,0 -2.5,2.5 -5.1,5.1 -7.6,7.6 -0.2,0.2 -0.3,0.3 -0.5,0.5 -0.5,0.4 -1.2,0.3 -1.6,-0.1 -0.5,-0.4 -0.5,-1.1 -0.1,-1.6 0.1,-0.1 0.2,-0.2 0.3,-0.4 2.4,-2.4 4.7,-4.7 7.1,-7.1 1.2,-1.2 2.4,-2.3 4.1,-2.6 0.3,0 0.8,0 1.4,0 z"
   id="path26" />
	<path
   d="m 89.2,36.6 c 0.1,-0.2 0.2,-0.5 0.5,-0.8 4.2,-4.3 8.5,-8.5 12.8,-12.8 0.6,-0.6 1.4,-0.6 1.9,-0.1 0.5,0.5 0.5,1.3 -0.1,1.8 -4.3,4.3 -8.5,8.5 -12.8,12.8 -0.4,0.4 -0.9,0.6 -1.4,0.3 -0.6,-0.1 -0.9,-0.5 -0.9,-1.2 z"
   id="path28" />
	<path
   d="m 92.4,21.6 c -2.5,0 -4.4,-2 -4.4,-4.4 0,-2.4 2,-4.4 4.4,-4.4 2.4,0 4.5,2 4.5,4.4 -0.1,2.4 -2,4.4 -4.5,4.4 z m 0,-2.5 c 1.1,0 2,-0.9 1.9,-1.9 0,-1 -0.9,-1.9 -2,-1.9 -1,0 -1.9,0.9 -1.9,1.9 0.1,1.1 0.9,1.9 2,1.9 z"
   id="path30" />
	<path
   d="m 78,28.5 c -0.1,0.2 -0.2,0.5 -0.5,0.8 -1.3,1.3 -2.6,2.7 -4,4 -0.6,0.6 -1.4,0.6 -1.9,0.1 -0.5,-0.5 -0.5,-1.2 0.1,-1.8 1.3,-1.3 2.7,-2.7 4,-4 0.4,-0.4 0.9,-0.5 1.4,-0.3 0.7,0.1 0.9,0.5 0.9,1.2 z"
   id="path32" />
	<path
   d="m 75.7,18.6 c 0,-0.7 0.5,-1.2 1.2,-1.3 0.7,0 1.2,0.5 1.3,1.2 0,0.7 -0.5,1.3 -1.2,1.3 -0.8,0 -1.3,-0.6 -1.3,-1.2 z"
   id="path34" />
</g>
</svg>
