<?xml version="1.0" encoding="UTF-8" standalone="no"?>
<!-- Generator: Adobe Illustrator 17.1.0, SVG Export Plug-In . SVG Version: 6.00 Build 0)  -->

<svg
   version="1.1"
   id="Layer_1"
   x="0px"
   y="0px"
   viewBox="0 0 70 70"
   enable-background="new 0 0 160 70"
   xml:space="preserve"
   width="70"
   height="70"
   xmlns="http://www.w3.org/2000/svg"
   xmlns:svg="http://www.w3.org/2000/svg">
<g
   id="g996"
   transform="translate(-46.040816,-0.65306126)">
	<path
   d="m 81.1,3.7 c 0.7,0.4 0.9,1 0.9,1.7 0,2.6 0,5.1 0,7.7 0,0.9 -0.6,1.5 -1.4,1.4 -0.6,-0.1 -1,-0.6 -1.1,-1.2 0,-2.8 0,-5.5 0,-8.3 0,-0.6 0.4,-1 0.9,-1.3 0.2,0 0.5,0 0.7,0 z"
   id="path968" />
	<path
   d="m 48.7,35.4 c 0.4,-0.7 0.9,-0.9 1.7,-0.9 2.6,0 5.1,0 7.7,0 0.9,0 1.4,0.5 1.4,1.3 0,0.7 -0.5,1.2 -1.2,1.2 -2.8,0 -5.5,0 -8.3,0 -0.6,0 -1,-0.4 -1.3,-0.9 0,-0.2 0,-0.5 0,-0.7 z"
   id="path970" />
	<path
   d="m 112.7,36.1 c -0.4,0.7 -0.9,0.9 -1.7,0.9 -2.6,0 -5.1,0 -7.7,0 -0.9,0 -1.5,-0.6 -1.4,-1.4 0.1,-0.6 0.5,-1 1.2,-1.1 2.8,0 5.5,0 8.3,0 0.6,0 1,0.4 1.3,0.9 0,0.2 0,0.5 0,0.7 z"
   id="path972" />
	<path
   d="m 80.4,67.7 c -0.7,-0.4 -0.9,-0.9 -0.9,-1.7 0,-2.6 0,-5.1 0,-7.7 0,-0.9 0.5,-1.4 1.3,-1.4 0.7,0 1.2,0.5 1.2,1.2 0,2.8 0,5.5 0,8.3 0,0.6 -0.4,1 -0.9,1.3 -0.2,0 -0.5,0 -0.7,0 z"
   id="path974" />
	<path
   d="M 99.4,35.8 C 99.3,45 92.7,52.7 83.7,54.2 73.7,55.9 64.2,49.1 62.3,39.1 c -1.6,-8.9 3.4,-17.8 12,-20.9 0.1,0 0.2,-0.1 0.3,-0.1 0.8,-0.2 1.4,0 1.7,0.7 0.2,0.7 -0.1,1.3 -0.8,1.6 -1.1,0.5 -2.2,0.9 -3.1,1.5 -5.7,3.4 -8.7,10.1 -7.6,16.6 1.2,6.6 6.2,11.8 12.7,13.1 9.3,1.8 18.1,-4.5 19.3,-14 0.9,-7.4 -3.5,-14.6 -10.5,-17.1 -0.1,0 -0.3,-0.1 -0.4,-0.1 -0.7,-0.3 -1,-0.9 -0.7,-1.6 0.2,-0.6 0.9,-1 1.6,-0.7 0.4,0.1 0.9,0.3 1.3,0.5 6.8,2.8 11.4,9.8 11.3,17.2 z"
   id="path976" />
	<path
   d="m 62.5,24.2 c 0,1.3 -1,1.8 -1.9,1.3 -1.2,-0.7 -2.3,-1.3 -3.5,-2 -1.2,-0.7 -2.3,-1.3 -3.5,-2 -0.8,-0.4 -1,-1.1 -0.6,-1.8 0.4,-0.6 1.1,-0.8 1.8,-0.4 2.3,1.3 4.6,2.6 6.9,4 0.4,0.3 0.7,0.7 0.8,0.9 z"
   id="path978" />
	<path
   d="m 62.6,47 c -0.2,0.3 -0.4,0.8 -0.8,1 -2.4,1.4 -4.8,2.8 -7.2,4.2 -0.6,0.4 -1.3,0.1 -1.7,-0.4 -0.4,-0.6 -0.2,-1.3 0.5,-1.7 2.4,-1.4 4.7,-2.8 7.1,-4.1 1,-0.6 2,0 2.1,1 z"
   id="path980" />
	<path
   d="m 98.8,24.4 c 0.3,-0.3 0.4,-0.8 0.8,-1 2.4,-1.4 4.7,-2.8 7.1,-4.1 0.7,-0.4 1.4,-0.2 1.7,0.5 0.3,0.6 0.2,1.3 -0.5,1.7 -2.4,1.4 -4.8,2.8 -7.2,4.2 -0.8,0.4 -1.8,-0.3 -1.9,-1.3 z"
   id="path982" />
	<path
   d="m 100.3,45.7 c 0.1,0 0.3,0.1 0.5,0.2 2.3,1.3 4.6,2.7 7,4 0.5,0.3 0.8,0.7 0.7,1.3 -0.1,0.5 -0.4,0.9 -0.9,1 -0.3,0.1 -0.7,0 -1,-0.1 -2.4,-1.3 -4.8,-2.7 -7.1,-4.1 -0.6,-0.3 -0.8,-0.9 -0.6,-1.5 0.3,-0.5 0.7,-0.8 1.4,-0.8 z"
   id="path984" />
	<path
   d="M 69.4,17.7 C 69.1,17.4 68.6,17.2 68.5,16.9 67.1,14.6 65.8,12.2 64.4,9.8 64,9.1 64.2,8.4 64.8,8 c 0.6,-0.3 1.3,-0.1 1.7,0.5 1.4,2.3 2.7,4.7 4.1,7.1 0.5,0.9 -0.1,1.9 -1.2,2.1 z"
   id="path986" />
	<path
   d="m 92.2,17.5 c -1.2,0 -1.8,-1 -1.3,-1.9 0.5,-0.9 1.1,-1.9 1.6,-2.8 0.8,-1.4 1.6,-2.8 2.5,-4.3 0.3,-0.5 0.7,-0.7 1.3,-0.7 0.5,0.1 0.9,0.4 1,0.9 0.1,0.3 0,0.7 -0.2,1 -1.3,2.4 -2.7,4.7 -4.1,7.1 -0.2,0.4 -0.6,0.6 -0.8,0.7 z"
   id="path988" />
	<path
   d="m 70.7,55.3 c 0,0.1 -0.1,0.4 -0.3,0.7 -1.3,2.3 -2.6,4.6 -4,6.9 -0.4,0.7 -1.1,1 -1.8,0.6 -0.6,-0.4 -0.8,-1.1 -0.4,-1.8 1.3,-2.3 2.7,-4.6 4,-6.9 0.4,-0.6 0.9,-0.9 1.5,-0.7 0.7,0 1,0.5 1,1.2 z"
   id="path990" />
	<path
   d="m 92.1,53.8 c 0.3,0.3 0.8,0.4 1,0.8 1.4,2.4 2.8,4.7 4.1,7.1 0.4,0.7 0.2,1.4 -0.4,1.7 -0.6,0.3 -1.3,0.2 -1.7,-0.5 -1.4,-2.4 -2.7,-4.7 -4.1,-7.1 -0.6,-0.9 0,-1.9 1.1,-2 z"
   id="path992" />
	<path
   d="m 80.7,19.5 c -0.7,0 -1.2,-0.5 -1.3,-1.2 0,-0.7 0.6,-1.3 1.3,-1.3 0.7,0 1.2,0.6 1.2,1.3 0.1,0.7 -0.5,1.2 -1.2,1.2 z"
   id="path994" />
</g>
</svg>
