<?xml version="1.0" encoding="UTF-8" standalone="no"?>
<!-- Generator: Adobe Illustrator 17.1.0, SVG Export Plug-In . SVG Version: 6.00 Build 0)  -->

<svg
   version="1.1"
   id="Layer_1"
   x="0px"
   y="0px"
   viewBox="0 0 70 70"
   enable-background="new 0 0 160 70"
   xml:space="preserve"
   width="70"
   height="70"
   xmlns="http://www.w3.org/2000/svg"
   xmlns:svg="http://www.w3.org/2000/svg">
<g
   id="g1199"
   transform="translate(-46.530612,-1.3061225)">
	<path
   d="m 64.8,53.8 c -2.3,0 -4.5,0 -6.7,0 -3.1,0 -5.3,-2.1 -5.3,-5.3 0,-11.8 0,-23.7 0,-35.5 0,-4.2 3,-7.3 7.2,-7.3 13.8,0 27.7,0 41.5,0 4.2,0 7.3,3 7.3,7.2 0,15.8 0,31.7 0,47.5 0,3.1 -2.1,5.3 -5.3,5.3 -11.2,0 -22.4,0 -33.5,0 -3.1,0 -5.3,-2.1 -5.3,-5.3 0,-2 0,-4 0,-6.1 0.1,0 0.1,-0.2 0.1,-0.5 z M 64.6,7.7 c 2,1.9 2.2,4.2 2.2,6.6 0,10.9 0,21.8 0,32.7 0,0.2 0,0.5 0,0.7 13.4,0 26.7,0 40,0 0,-0.3 0,-0.5 0,-0.7 0,-11.3 0,-22.6 0,-33.9 0,-3.3 -2.1,-5.4 -5.4,-5.4 -12,0 -23.9,0 -35.9,0 -0.2,0 -0.5,0 -0.9,0 z m 0.2,44.1 c 0,-0.3 0,-0.5 0,-0.7 0,-12.6 0,-25.2 0,-37.8 0,-0.3 0,-0.5 0,-0.8 -0.2,-3 -3,-5.2 -5.9,-4.6 -2.5,0.5 -4.1,2.5 -4.1,5.1 0,11.9 0,23.7 0,35.6 0,0.1 0,0.3 0,0.4 0.1,1.5 1.2,2.8 2.7,2.8 2.4,0 4.8,0 7.3,0 z m 42,-2 c -13.4,0 -26.7,0 -40,0 0,2 0,3.9 0,5.9 13.3,0 26.6,0 40,0 0,-1.9 0,-3.9 0,-5.9 z m 0,8 c -13.4,0 -26.7,0 -40,0 0,0.9 0,1.7 0,2.5 0,2.3 1.2,3.5 3.5,3.5 11,0 22.1,0 33.1,0 0.2,0 0.4,0 0.6,0 1.5,-0.1 2.8,-1.2 2.9,-2.6 0,-1.1 -0.1,-2.2 -0.1,-3.4 z"
   id="path1197" />
</g>
</svg>
