<?xml version="1.0" encoding="utf-8"?>
<!-- Generator: Adobe Illustrator 17.1.0, SVG Export Plug-In . SVG Version: 6.00 Build 0)  -->
<!DOCTYPE svg PUBLIC "-//W3C//DTD SVG 1.1//EN" "http://www.w3.org/Graphics/SVG/1.1/DTD/svg11.dtd">
<svg version="1.1" id="Layer_1" xmlns="http://www.w3.org/2000/svg" xmlns:xlink="http://www.w3.org/1999/xlink" x="0px" y="0px"
	 viewBox="0 0 45 45" enable-background="new 0 0 45 45" xml:space="preserve">
<g>
	<path d="M2.7,15c0-0.1,0-0.3,0-0.4c0.2-0.3,0.5-0.4,0.8-0.4c2.2,0,4.4,0,6.6,0c0.1,0,0.3,0,0.4,0c0.1-0.4,0.1-0.9,0.2-1.3
		c1-5,3.8-8.2,8.7-9.7C20.2,3,21,2.9,21.8,2.7c0.6,0,1.3,0,1.9,0c0.1,0,0.2,0.1,0.3,0.1c4.8,0.6,8.1,3.2,10,7.6
		c0.5,1.2,0.8,2.5,0.9,3.9c0.2,0,0.3,0,0.4,0c2.2,0,4.4,0,6.6,0c0.4,0,0.6,0.1,0.8,0.4c0,0.1,0,0.3,0,0.4c-0.2,0.3-0.5,0.4-0.8,0.4
		c-2.2,0-4.4,0-6.6,0c-0.1,0-0.3,0-0.4,0c0,0.3,0,0.5,0,0.8c0.2,0,0.3,0,0.5,0c2.2,0,4.4,0,6.6,0c0.4,0,0.6,0.1,0.8,0.4
		c0,0.1,0,0.3,0,0.4c-0.2,0.3-0.5,0.4-0.8,0.4c-2.2,0-4.4,0-6.6,0c-0.1,0-0.3,0-0.4,0c0,1.3,0,2.6,0,3.9c0.2,0,0.3,0,0.5,0
		c2.2,0,4.4,0,6.6,0c0.4,0,0.6,0.1,0.8,0.4c0,0.1,0,0.3,0,0.4c-0.2,0.3-0.5,0.4-0.8,0.4c-2.2,0-4.4,0-6.6,0c-0.1,0-0.3,0-0.4,0
		c0,0.3,0,0.5,0,0.8c0.2,0,0.3,0,0.5,0c2.2,0,4.4,0,6.6,0c0.4,0,0.6,0.1,0.8,0.4c0,0.1,0,0.3,0,0.4c-0.2,0.3-0.5,0.4-0.8,0.4
		c-2.2,0-4.4,0-6.6,0c-0.1,0-0.3,0-0.4,0c0,0.8,0,1.5,0,2.2c0.4,0,0.7,0,1,0c0.7,0,1,0.4,1.1,1c0,0.2,0,0.4,0,0.7c0,0.7,0,1.3,0,2.1
		c0.2,0,0.3,0,0.5,0c1.5,0,3,0,4.4,0c0.4,0,0.6,0.1,0.8,0.4c0,0.1,0,0.3,0,0.4c-0.2,0.3-0.5,0.4-0.8,0.4c-2.1,0-4.3,0-6.4,0
		c-0.1,0-0.3,0-0.4,0c0,0.7,0,1.3,0,2c0.2,0,0.3,0,0.4,0c2.1,0,4.2,0,6.3,0c0.1,0,0.2,0,0.4,0c0.3,0.1,0.5,0.3,0.5,0.6
		c0,0.3-0.2,0.5-0.5,0.6c-0.1,0-0.3,0-0.4,0c-2.1,0-4.2,0-6.3,0c-0.1,0-0.3,0-0.4,0c0,0.4,0,0.8,0,1.2c0.2,0,0.3,0,0.5,0
		c2.1,0,4.2,0,6.2,0c0.1,0,0.2,0,0.3,0c0.4,0,0.6,0.3,0.6,0.6c0,0.3-0.2,0.6-0.6,0.6c-0.1,0-0.2,0-0.3,0c-2.1,0-4.2,0-6.3,0
		c-0.1,0-0.3,0-0.4,0c0,1.6,0,3.1,0,4.6c0.2,0,0.3,0,0.4,0c2.1,0,4.3,0,6.4,0c0.4,0,0.6,0.1,0.8,0.4c0,0.3,0,0.5,0,0.8
		c-13.3,0-26.7,0-40,0c0-0.3,0-0.5,0-0.8c0.2-0.3,0.5-0.4,0.8-0.4c2.1,0,4.3,0,6.4,0c0.1,0,0.3,0,0.4,0c0-1.6,0-3.1,0-4.6
		c-0.2,0-0.3,0-0.4,0c-2.1,0-4.1,0-6.2,0c-0.1,0-0.2,0-0.3,0c-0.4,0-0.6-0.2-0.6-0.6c0-0.3,0.2-0.6,0.6-0.6c0.1,0,0.2,0,0.3,0
		c2.1,0,4.1,0,6.2,0c0.1,0,0.3,0,0.4,0c0-0.4,0-0.8,0-1.2c-0.2,0-0.3,0-0.5,0c-2.1,0-4.1,0-6.2,0c-0.1,0-0.3,0-0.4,0
		C3,34.5,2.9,34.3,2.9,34c0-0.3,0.2-0.5,0.5-0.6c0.1,0,0.2,0,0.4,0c2.1,0,4.2,0,6.3,0c0.1,0,0.3,0,0.4,0c0-0.7,0-1.3,0-2
		c-0.2,0-0.3,0-0.4,0c-2.1,0-4.3,0-6.4,0c-0.4,0-0.6-0.1-0.8-0.4c0-0.1,0-0.3,0-0.4c0.2-0.3,0.5-0.4,0.8-0.4c1.5,0,3,0,4.5,0
		c0.1,0,0.3,0,0.4,0c0-0.9,0-1.7,0-2.6c0-0.8,0.4-1.2,1.2-1.2c0.3,0,0.6,0,0.9,0c0-0.7,0-1.5,0-2.2c-0.2,0-0.3,0-0.4,0
		c-2.2,0-4.4,0-6.6,0c-0.4,0-0.6-0.1-0.8-0.4c0-0.1,0-0.3,0-0.4c0.2-0.3,0.5-0.4,0.8-0.4c2.2,0,4.4,0,6.6,0c0.1,0,0.3,0,0.4,0
		c0-0.3,0-0.5,0-0.8c-0.2,0-0.3,0-0.5,0c-2.2,0-4.4,0-6.6,0c-0.4,0-0.6-0.1-0.8-0.4c0-0.1,0-0.3,0-0.4c0.2-0.3,0.5-0.4,0.8-0.4
		c2.2,0,4.4,0,6.6,0c0.1,0,0.3,0,0.4,0c0-1.3,0-2.6,0-3.9c-0.2,0-0.3,0-0.5,0c-2.2,0-4.4,0-6.6,0c-0.4,0-0.6-0.1-0.8-0.4
		c0-0.1,0-0.3,0-0.4c0.2-0.3,0.5-0.4,0.8-0.4c2.2,0,4.4,0,6.6,0c0.1,0,0.3,0,0.4,0c0-0.3,0-0.5,0-0.8c-0.2,0-0.3,0-0.5,0
		c-2.2,0-4.4,0-6.6,0C3.2,15.4,2.9,15.3,2.7,15z M19.4,26.5c0-0.1,0-0.1,0-0.2c0-1.5,0-3,0-4.6c0-1.4,0-2.9,0-4.3
		c0.1-2.1,2.2-3.5,4.2-2.9c1.5,0.4,2.4,1.7,2.4,3.3c0,2.7,0,5.4,0,8.1c0,0.2,0,0.3,0,0.5c0.4,0,0.8,0,1.2,0c0-0.1,0-0.2,0-0.3
		c0-3,0-6,0-9c0-0.4,0.2-0.7,0.5-0.7c0.3,0,0.6,0.2,0.6,0.6c0,0.3,0,0.7,0,1c0,2.6,0,5.3,0,7.9c0,0.2,0,0.3,0,0.5c1,0,2,0,2.9,0
		c0-0.1,0-0.2,0-0.3c0-3.8,0-7.6,0-11.4c0-0.3,0-0.7-0.1-1c-0.4-4.1-4.1-7.5-8.2-7.6c-2.2,0-4.2,0.6-5.9,2.1c-0.4,0.3-0.7,0.3-0.9,0
		c-0.3-0.3-0.2-0.6,0.2-0.9c2.4-2,5.2-2.8,8.3-2.2c4.6,1,7.8,4.9,7.8,9.7c0,3.7,0,7.4,0,11.1c0,0.2,0,0.3,0,0.5c0.4,0,0.8,0,1.2,0
		c0-0.1,0-0.2,0-0.3c0-3.8,0-7.6,0-11.4c0-0.6-0.1-1.2-0.2-1.8c-1-6.3-7.5-10.5-13.6-8.8c-4.9,1.4-8.1,5.6-8.1,10.7
		c0,3.7,0,7.4,0,11.2c0,0.1,0,0.3,0,0.4c0.4,0,0.8,0,1.2,0c0-0.2,0-0.3,0-0.5c0-3.5,0-7.1,0-10.6c0-0.6,0-1.2,0.1-1.8
		c0.1-1.4,0.6-2.6,1.3-3.8c0.2-0.3,0.4-0.4,0.7-0.3c0.2,0.1,0.3,0.3,0.4,0.5c0,0.1-0.1,0.3-0.2,0.5c-0.8,1.4-1.1,2.9-1.1,4.4
		c0,3.7,0,7.4,0,11.1c0,0.1,0,0.3,0,0.4c1,0,2,0,2.9,0c0-1,0-1.9,0-2.8c0-2.1-0.1-4.2,0-6.4c0.1-2.4,1.4-4.1,3.7-4.9
		c2.2-0.8,4.2-0.3,6,1.3c0.1,0.1,0.3,0.3,0.4,0.4c0.2,0.3,0.2,0.6-0.1,0.8c-0.2,0.2-0.6,0.2-0.8-0.1c-0.1-0.1-0.2-0.3-0.3-0.4
		c-1.2-1.2-2.6-1.6-4.2-1.2c-2.1,0.5-3.4,2.2-3.4,4.4c0,2.8,0,5.6,0,8.4c0,0.1,0,0.2,0,0.3C18.6,26.5,19,26.5,19.4,26.5z M35.8,27.8
		c-8.7,0-17.4,0-26.1,0c0,0.9,0,1.7,0,2.5c0.2,0,0.3,0,0.4,0c2.2,0,4.4,0,6.6,0c0.1,0,0.2,0,0.4,0c0.3,0.1,0.5,0.2,0.5,0.6
		c0,0.3-0.2,0.5-0.5,0.6c-0.1,0-0.2,0-0.4,0c-1.6,0-3.1,0-4.7,0c-0.1,0-0.3,0-0.4,0c0,0.4,0,0.8,0,1.2c7.4,0,14.8,0,22.2,0
		c0-0.4,0-0.8,0-1.2c-0.2,0-0.3,0-0.5,0c-4.5,0-8.9,0-13.4,0c-0.6,0-0.8-0.2-0.8-0.6c0-0.4,0.3-0.6,0.8-0.6c0.1,0,0.2,0,0.3,0
		c5,0,10,0,15,0c0.2,0,0.3,0,0.5,0C35.8,29.4,35.8,28.6,35.8,27.8z M24.9,26.5c0-0.2,0-0.4,0-0.5c0-2.6,0-5.3,0-7.9
		c0-0.2,0-0.4,0-0.6c-0.1-1-1-1.9-2-1.9c-1.3,0-2.2,0.9-2.2,2.3c0,2.8,0,5.5,0,8.3c0,0.1,0,0.2,0,0.4C22,26.5,23.4,26.5,24.9,26.5z
		 M25.7,41.5c0.4,0,0.8,0,1.1,0c0-2.6,0-5.1,0-7.7c-0.4,0-0.8,0-1.1,0c0,1,0,1.9,0,2.8c0,0.5-0.2,0.7-0.6,0.7
		c-0.4,0-0.6-0.3-0.6-0.7c0-0.4,0-0.9,0-1.3c0-0.5,0-1,0-1.6c-0.4,0-0.8,0-1.1,0c0,2.6,0,5.1,0,7.7c0.4,0,0.7,0,1.1,0
		c0-0.2,0-0.4,0-0.6c0-0.5,0-1,0-1.4c0-0.3,0.2-0.5,0.5-0.5c0.2,0,0.4,0.2,0.6,0.3c0.1,0.1,0.1,0.3,0.1,0.4
		C25.7,40.3,25.7,40.9,25.7,41.5z M11.6,33.8c0,2.6,0,5.1,0,7.7c0.4,0,0.8,0,1.1,0c0-2.6,0-5.1,0-7.7C12.4,33.8,12,33.8,11.6,33.8z
		 M14,33.8c0,2.6,0,5.1,0,7.7c0.4,0,0.7,0,1.1,0c0-2.6,0-5.1,0-7.7C14.7,33.8,14.3,33.8,14,33.8z M17.4,41.5c0-2.6,0-5.1,0-7.7
		c-0.4,0-0.7,0-1.1,0c0,2.6,0,5.1,0,7.7C16.7,41.5,17,41.5,17.4,41.5z M19.8,41.5c0-2.6,0-5.1,0-7.7c-0.4,0-0.7,0-1.1,0
		c0,2.6,0,5.1,0,7.7C19,41.5,19.4,41.5,19.8,41.5z M21,33.8c0,2.6,0,5.1,0,7.7c0.4,0,0.7,0,1.1,0c0-2.6,0-5.1,0-7.7
		C21.7,33.8,21.4,33.8,21,33.8z M28,33.8c0,2.6,0,5.1,0,7.7c0.4,0,0.7,0,1.1,0c0-2.6,0-5.1,0-7.7C28.8,33.8,28.4,33.8,28,33.8z
		 M30.4,41.5c0.4,0,0.8,0,1.1,0c0-2.6,0-5.1,0-7.7c-0.4,0-0.8,0-1.1,0C30.4,36.4,30.4,39,30.4,41.5z M32.7,33.8c0,2.6,0,5.1,0,7.7
		c0.4,0,0.7,0,1.1,0c0-2.6,0-5.1,0-7.7C33.4,33.8,33.1,33.8,32.7,33.8z"/>
</g>
</svg>
