<?xml version="1.0" encoding="UTF-8" standalone="no"?>
<!-- Generator: Adobe Illustrator 17.1.0, SVG Export Plug-In . SVG Version: 6.00 Build 0)  -->

<svg
   version="1.1"
   id="Layer_1"
   x="0px"
   y="0px"
   viewBox="0 0 70 70"
   enable-background="new 0 0 160 70"
   xml:space="preserve"
   width="70"
   height="70"
   xmlns="http://www.w3.org/2000/svg"
   xmlns:svg="http://www.w3.org/2000/svg">
<g
   id="g701"
   transform="translate(-46.204082,-1.3061224)">
	<path
   d="m 80.8,3.3 c 9.6,0 19.2,0 28.8,0 2.4,0 3.7,1.3 3.7,3.7 0,17.8 0,35.5 0,53.3 0,1.5 -0.5,2.7 -1.9,3.4 -0.1,0.1 -0.3,0.3 -0.3,0.5 0,0.7 0,1.3 0,2 0,1.2 -0.9,2.1 -2.2,2.2 -0.2,0 -0.4,0 -0.5,0 -18.4,0 -36.8,0 -55.2,0 -1.9,0 -2.7,-0.8 -2.7,-2.7 0,-0.1 0,-0.2 0,-0.3 0.1,-0.9 0,-1.6 -0.9,-2.1 -0.8,-0.4 -1.2,-1.4 -1.2,-2.4 0,-0.2 0,-0.5 0,-0.7 0,-17.7 0,-35.4 0,-53.1 0,-2.5 1.2,-3.8 3.8,-3.8 9.5,0 19,0 28.6,0 z m 0,2.2 c -9.6,0 -19.1,0 -28.7,0 -1.3,0 -1.6,0.3 -1.6,1.6 0,17.7 0,35.4 0,53.1 0,1.3 0.3,1.6 1.6,1.6 19.1,0 38.3,0 57.4,0 1.3,0 1.6,-0.3 1.6,-1.6 0,-17.7 0,-35.4 0,-53.1 0,-1.3 -0.3,-1.6 -1.6,-1.6 -9.6,0 -19.1,0 -28.7,0 z M 52.7,66.1 c 18.8,0 37.5,0 56.2,0 0,-0.7 0,-1.4 0,-2.1 -18.8,0 -37.5,0 -56.2,0 0,0.7 0,1.3 0,2.1 z"
   id="path651" />
	<path
   d="m 70,20.1 c 0,3.7 0,7.3 0,11 0,1.2 -0.3,1.5 -1.5,1.5 -4.8,0 -9.6,0 -14.4,0 -1.2,0 -1.5,-0.3 -1.5,-1.5 0,-7.3 0,-14.6 0,-21.9 0,-1.2 0.3,-1.5 1.5,-1.5 4.8,0 9.6,0 14.4,0 1.1,-0.1 1.5,0.3 1.5,1.4 0,3.7 0,7.3 0,11 z m -2.2,10.2 c 0,-6.9 0,-13.7 0,-20.5 -4.3,0 -8.6,0 -12.9,0 0,6.9 0,13.7 0,20.5 4.2,0 8.5,0 12.9,0 z"
   id="path653" />
	<path
   d="m 89.5,20.1 c 0,3.7 0,7.3 0,11 0,1.2 -0.3,1.5 -1.5,1.5 -4.8,0 -9.6,0 -14.4,0 -1.2,0 -1.5,-0.3 -1.5,-1.5 0,-7.3 0,-14.6 0,-21.9 0,-1.2 0.3,-1.5 1.5,-1.5 4.8,0 9.6,0 14.4,0 1.2,0 1.5,0.3 1.5,1.5 0,3.6 0,7.2 0,10.9 z m -2.3,10.2 c 0,-6.9 0,-13.7 0,-20.5 -4.3,0 -8.6,0 -12.9,0 0,6.9 0,13.7 0,20.5 4.3,0 8.6,0 12.9,0 z"
   id="path655" />
	<path
   d="m 91.6,20 c 0,-3.6 0,-7.3 0,-10.9 0,-1.2 0.3,-1.5 1.5,-1.5 4.8,0 9.6,0 14.4,0 1.2,0 1.5,0.3 1.5,1.5 0,7.3 0,14.6 0,21.9 0,1.2 -0.3,1.5 -1.5,1.5 -4.8,0 -9.6,0 -14.4,0 -1.2,0 -1.5,-0.3 -1.5,-1.5 0,-3.6 0,-7.3 0,-11 z m 15.1,10.3 c 0,-6.9 0,-13.7 0,-20.5 -4.3,0 -8.6,0 -12.9,0 0,6.9 0,13.7 0,20.5 4.3,0 8.6,0 12.9,0 z"
   id="path657" />
	<path
   d="m 70,47.2 c 0,3.7 0,7.3 0,11 0,1.2 -0.3,1.5 -1.5,1.5 -4.8,0 -9.6,0 -14.4,0 -1.2,0 -1.5,-0.3 -1.5,-1.5 0,-7.3 0,-14.6 0,-21.9 0,-1.2 0.3,-1.5 1.5,-1.5 4.8,0 9.6,0 14.4,0 1.2,0 1.5,0.3 1.5,1.5 0,3.5 0,7.2 0,10.9 z M 54.8,57.4 c 4.4,0 8.6,0 12.9,0 0,-6.9 0,-13.7 0,-20.5 -4.3,0 -8.6,0 -12.9,0 0,6.8 0,13.6 0,20.5 z"
   id="path659" />
	<path
   d="m 109,47.2 c 0,3.7 0,7.3 0,11 0,1.2 -0.3,1.5 -1.5,1.5 -4.8,0 -9.6,0 -14.4,0 -1.2,0 -1.5,-0.3 -1.5,-1.5 0,-7.3 0,-14.6 0,-21.9 0,-1.2 0.3,-1.5 1.5,-1.5 4.8,0 9.6,0 14.4,0 1.2,0 1.5,0.3 1.5,1.5 0,3.5 0,7.2 0,10.9 z M 93.8,36.9 c 0,6.9 0,13.7 0,20.5 4.3,0 8.6,0 12.9,0 0,-6.9 0,-13.7 0,-20.5 -4.3,0 -8.5,0 -12.9,0 z"
   id="path661" />
	<path
   d="m 72.1,47.1 c 0,-3.6 0,-7.3 0,-10.9 0,-1.2 0.3,-1.5 1.5,-1.5 4.8,0 9.6,0 14.4,0 1.2,0 1.5,0.3 1.5,1.5 0,7.3 0,14.6 0,21.9 0,1.2 -0.3,1.5 -1.5,1.5 -4.8,0 -9.6,0 -14.4,0 -1.2,0 -1.5,-0.3 -1.5,-1.5 0,-3.7 0,-7.3 0,-11 z M 87.3,36.9 c -4.3,0 -8.6,0 -12.9,0 0,6.9 0,13.7 0,20.5 4.3,0 8.6,0 12.9,0 0,-6.8 0,-13.6 0,-20.5 z"
   id="path663" />
	<path
   d="m 61.3,14.1 c -1,0 -2,0 -3,0 -0.8,0 -1.2,-0.4 -1.2,-1.1 0,-0.7 0.5,-1.1 1.3,-1.1 2.1,0 4.1,0 6.2,0 0.8,0 1.2,0.4 1.2,1.1 0,0.7 -0.5,1.1 -1.3,1.1 -1.2,0 -2.2,0 -3.2,0 z"
   id="path665" />
	<path
   d="m 61.3,18.4 c -1,0 -2,0 -3,0 -0.8,0 -1.2,-0.4 -1.2,-1.1 0,-0.7 0.5,-1.1 1.3,-1.1 2.1,0 4.1,0 6.2,0 0.8,0 1.2,0.4 1.2,1.1 0,0.7 -0.5,1.1 -1.3,1.1 -1.2,0.1 -2.2,0 -3.2,0 z"
   id="path667" />
	<path
   d="m 57,23.8 c 0,-0.3 0,-0.7 0,-1 0,-0.6 0.5,-1.1 1.1,-1.1 0.6,0 1.1,0.4 1.1,1.1 0,0.7 0,1.5 0,2.2 0,0.6 -0.5,1 -1,1 -0.7,0 -1.2,-0.4 -1.2,-1 -0.1,-0.4 0,-0.8 0,-1.2 z"
   id="path669" />
	<path
   d="m 80.9,16.3 c 1,0 2,0 3,0 0.8,0 1.3,0.4 1.3,1.1 0,0.7 -0.5,1.1 -1.3,1.1 -2,0 -4.1,0 -6.1,0 -0.8,0 -1.3,-0.4 -1.3,-1.1 0,-0.7 0.5,-1.1 1.3,-1.1 1,0 2,0 3.1,0 z"
   id="path671" />
	<path
   d="m 80.7,14.1 c -1,0 -2,0 -3,0 -0.7,0 -1.2,-0.4 -1.2,-1.1 0,-0.6 0.5,-1.1 1.2,-1.1 2.1,0 4.2,0 6.2,0 0.7,0 1.2,0.4 1.2,1.1 0,0.6 -0.5,1.1 -1.2,1.1 -1,0 -2.1,0 -3.2,0 z"
   id="path673" />
	<path
   d="m 78.6,23.9 c 0,0.4 0,0.7 0,1.1 0,0.6 -0.5,1.1 -1.1,1.1 -0.6,0 -1,-0.4 -1.1,-1 0,-0.8 0,-1.5 0,-2.3 0,-0.6 0.5,-1 1.1,-1 0.6,0 1,0.4 1.1,1 0,0.3 0,0.7 0,1.1 0,0 0,0 0,0 z"
   id="path675" />
	<path
   d="m 100.3,16.3 c 1,0 2,0 3,0 0.8,0 1.2,0.4 1.2,1.1 0,0.7 -0.5,1.1 -1.3,1.1 -2.1,0 -4.1,0 -6.2,0 -0.8,0 -1.2,-0.4 -1.2,-1.1 0,-0.7 0.5,-1.1 1.3,-1.1 1.2,0 2.2,0 3.2,0 z"
   id="path677" />
	<path
   d="m 100.2,14.1 c -1,0 -2,0 -3,0 -0.8,0 -1.2,-0.4 -1.2,-1.1 0,-0.7 0.5,-1.1 1.3,-1.1 2.1,0 4.1,0 6.2,0 0.8,0 1.2,0.4 1.2,1.1 0,0.7 -0.5,1.1 -1.3,1.1 -1.1,0 -2.1,0 -3.2,0 z"
   id="path679" />
	<path
   d="m 96,23.8 c 0,-0.4 0,-0.7 0,-1.1 0,-0.6 0.5,-1 1.1,-1 0.6,0 1,0.4 1.1,1 0,0.8 0,1.5 0,2.3 0,0.6 -0.5,1 -1.1,1 -0.6,0 -1,-0.4 -1.1,-1.1 -0.1,-0.3 0,-0.7 0,-1.1 0,0 0,0 0,0 z"
   id="path681" />
	<path
   d="m 61.2,41.2 c -1,0 -2,0 -3,0 -0.8,0 -1.3,-0.4 -1.3,-1.1 0,-0.7 0.5,-1.1 1.3,-1.1 2,0 4.1,0 6.1,0 0.8,0 1.3,0.4 1.3,1.1 0,0.7 -0.5,1.1 -1.3,1.1 -1,0 -2,0 -3.1,0 z"
   id="path683" />
	<path
   d="m 61.3,45.5 c -1,0 -2,0 -3,0 -0.8,0 -1.3,-0.4 -1.3,-1.1 0,-0.7 0.5,-1.1 1.3,-1.1 2,0 4.1,0 6.1,0 0.8,0 1.3,0.4 1.3,1.1 0,0.7 -0.5,1.1 -1.3,1.1 -1.1,0 -2.1,0 -3.1,0 z"
   id="path685" />
	<path
   d="m 59.1,50.9 c 0,0.4 0,0.8 0,1.1 -0.1,0.6 -0.5,1 -1.1,1 -0.6,0 -1,-0.4 -1.1,-1 0,-0.8 0,-1.5 0,-2.3 0,-0.6 0.5,-1 1.1,-1 0.6,0 1,0.4 1.1,1 0.1,0.5 0,0.9 0,1.2 z"
   id="path687" />
	<path
   d="m 100.3,41.2 c -1,0 -2,0 -3,0 -0.8,0 -1.3,-0.4 -1.3,-1.1 0,-0.6 0.5,-1.1 1.2,-1.1 2.1,0 4.1,0 6.2,0 0.8,0 1.3,0.4 1.3,1.1 0,0.6 -0.5,1 -1.2,1.1 -1.2,0 -2.2,0 -3.2,0 z"
   id="path689" />
	<path
   d="m 100.3,45.5 c -1,0 -2,0 -3,0 -0.8,0 -1.3,-0.4 -1.3,-1.1 0,-0.6 0.5,-1.1 1.2,-1.1 2.1,0 4.1,0 6.2,0 0.8,0 1.3,0.4 1.3,1.1 0,0.6 -0.5,1.1 -1.2,1.1 -1.2,0 -2.2,0 -3.2,0 z"
   id="path691" />
	<path
   d="m 98.1,51 c 0,0.4 0,0.7 0,1.1 0,0.6 -0.5,1.1 -1.1,1 -0.6,0 -1,-0.4 -1,-1 0,-0.7 0,-1.5 0,-2.2 0,-0.6 0.5,-1.1 1.1,-1 0.6,0 1,0.4 1,1 0,0.3 0,0.7 0,1.1 z"
   id="path693" />
	<path
   d="m 80.8,39 c 1,0 2,0 3,0 0.8,0 1.3,0.4 1.3,1.1 0,0.7 -0.5,1.1 -1.3,1.1 -2,0 -4.1,0 -6.1,0 -0.8,0 -1.3,-0.4 -1.3,-1.1 0,-0.7 0.5,-1.1 1.3,-1.1 1.1,0 2.1,0 3.1,0 z"
   id="path695" />
	<path
   d="m 80.8,45.5 c -1,0 -2,0 -3,0 -0.8,0 -1.3,-0.4 -1.3,-1.1 0,-0.7 0.5,-1.1 1.3,-1.1 2,0 4.1,0 6.1,0 0.8,0 1.3,0.4 1.3,1.1 0,0.7 -0.5,1.1 -1.3,1.1 -1.1,0 -2.1,0 -3.1,0 z"
   id="path697" />
	<path
   d="m 76.5,50.9 c 0,-0.4 0,-0.8 0,-1.1 0.1,-0.6 0.4,-0.9 1,-1 0.6,0 1.1,0.4 1.1,1 0,0.8 0,1.6 0,2.4 0,0.6 -0.5,1 -1.1,1 -0.6,0 -1,-0.4 -1,-1 -0.1,-0.5 0,-0.9 0,-1.3 z"
   id="path699" />
</g>
</svg>
