<!-- icon666.com - MILLIONS vector ICONS FREE -->
<svg id="Capa_1" enable-background="new 0 0 512 512" viewBox="0 0 512 512" xmlns="http://www.w3.org/2000/svg"><g><path d="m256 7.5c-137.243 0-248.5 111.257-248.5 248.5 0 50.573 15.122 97.607 41.069 136.857l-39.756 90.566c-5.494 12.516 7.248 25.259 19.764 19.764l90.566-39.756c39.249 25.947 86.284 41.069 136.857 41.069 137.243 0 248.5-111.257 248.5-248.5s-111.257-248.5-248.5-248.5z" fill="#47d4ff" style="fill: rgb(97, 206, 90);"/><path d="m256 37.5v437c120.674 0 218.5-97.826 218.5-218.5s-97.826-218.5-218.5-218.5z" fill="#bdf2ff" style="fill: rgb(255, 255, 255);"/><path d="m444.5 256c0-120.674-84.394-218.5-188.5-218.5-120.674 0-218.5 97.826-218.5 218.5s97.826 218.5 218.5 218.5c104.106 0 188.5-97.826 188.5-218.5z" fill="#fff"/><path d="m256 97.5v317c87.537 0 158.5-70.963 158.5-158.5s-70.963-158.5-158.5-158.5z" fill="#2db94d" style="fill: rgb(97, 206, 90);"/><path d="m384.5 256c0-87.537-57.531-158.5-128.5-158.5-87.537 0-158.5 70.963-158.5 158.5s70.963 158.5 158.5 158.5c70.969 0 128.5-70.963 128.5-158.5z" fill="#61ce5a"/><path d="m186.35 249.99 75.66 75.66c23.431 23.431 61.421 23.431 84.853 0l10.607-10.607c-10.213-23.831-29.202-42.82-53.033-53.033 0 0-21.213 21.213-21.213 21.213l-54.447-54.447 21.213-21.213c-10.213-23.831-29.202-42.82-53.033-53.033 0 0-10.607 10.607-10.607 10.607-23.431 23.431-23.431 61.421 0 84.853z" fill="#fff"/><path d="m437.019 74.98c-48.352-48.351-112.639-74.98-181.019-74.98s-132.667 26.629-181.02 74.98c-48.351 48.352-74.98 112.64-74.98 181.02 0 48.993 13.843 96.457 40.075 137.548l-38.13 86.86c-3.754 8.554-1.913 18.348 4.692 24.953 6.606 6.606 16.401 8.449 24.954 4.692l86.86-38.129c41.092 26.233 88.557 40.076 137.549 40.076 68.38 0 132.667-26.629 181.019-74.98 48.353-48.352 74.981-112.64 74.981-181.02s-26.628-132.668-74.981-181.02zm-181.019 422.02c-47.416 0-93.31-13.771-132.721-39.826-2.125-1.403-4.818-1.636-7.151-.61l-90.566 39.756c-4.357 1.91-7.468-.715-8.318-1.564-.85-.851-3.476-3.963-1.564-8.317l39.756-90.566c1.024-2.333.794-5.025-.611-7.15-26.054-39.412-39.825-85.307-39.825-132.723 0-132.888 108.112-241 241-241s241 108.112 241 241-108.112 241-241 241z" fill="#000000" style="fill: rgb(97, 206, 90);"/><path d="m256 422c91.533 0 166-74.468 166-166s-74.467-166-166-166-166 74.468-166 166 74.467 166 166 166zm0-317c83.262 0 151 67.738 151 151s-67.738 151-151 151-151-67.738-151-151 67.738-151 151-151z" fill="#000000" style="fill: rgb(97, 206, 90);"/><path d="m415.806 96.194c-42.686-42.686-99.439-66.194-159.806-66.194-54.611 0-107.335 19.748-148.458 55.604-3.122 2.723-3.446 7.46-.724 10.582 2.722 3.123 7.46 3.445 10.582.724 38.391-33.474 87.614-51.91 138.6-51.91 116.346 0 211 94.654 211 211s-94.654 211-211 211-211-94.654-211-211c0-50.987 18.436-100.21 51.911-138.6 2.722-3.121 2.398-7.859-.724-10.581-3.121-2.724-7.859-2.4-10.582.724-35.857 41.121-55.605 93.845-55.605 148.457 0 60.366 23.508 117.12 66.194 159.806s99.439 66.194 159.806 66.194 117.12-23.508 159.806-66.194 66.194-99.44 66.194-159.806-23.508-117.12-66.194-159.806z" fill="#000000" style="fill: rgb(97, 206, 90);"/><path d="m256.707 330.954c13.159 13.158 30.444 19.737 47.729 19.737 17.286 0 34.571-6.579 47.73-19.738l10.606-10.607c2.168-2.168 2.798-5.438 1.59-8.257-11.022-25.718-31.255-45.95-56.972-56.972-2.818-1.21-6.089-.578-8.257 1.59l-15.91 15.91-43.841-43.841 15.91-15.909c2.168-2.169 2.798-5.439 1.59-8.258-11.022-25.719-31.255-45.951-56.973-56.973-2.821-1.209-6.089-.579-8.257 1.59l-10.606 10.606c-12.749 12.75-19.771 29.7-19.771 47.73s7.021 34.98 19.771 47.729zm-65.054-160.514 6.915-6.915c18.491 9.112 33.314 23.935 42.427 42.427l-17.521 17.521c-1.407 1.407-2.197 3.314-2.197 5.304s.79 3.896 2.197 5.304l54.447 54.447c2.928 2.928 7.677 2.928 10.606 0l17.521-17.521c18.491 9.112 33.313 23.935 42.426 42.426l-6.915 6.915c-10.236 10.236-23.678 15.354-37.124 15.353-13.442-.002-26.889-5.119-37.123-15.353l-75.66-75.661c-9.916-9.915-15.377-23.099-15.377-37.122s5.462-27.209 15.378-37.125z" fill="#000000" style="fill: rgb(97, 206, 90);"/></g></svg>